<svg width="200" height="200" viewBox="0 0 200 200" xmlns="http://www.w3.org/2000/svg">
  <defs>
    <!-- Gradients for depth and modern look -->
    <radialGradient id="centerGlow" cx="50%" cy="50%" r="50%">
      <stop offset="0%" style="stop-color:#4f46e5;stop-opacity:0.8" />
      <stop offset="70%" style="stop-color:#06b6d4;stop-opacity:0.4" />
      <stop offset="100%" style="stop-color:#8b5cf6;stop-opacity:0.1" />
    </radialGradient>
    
    <linearGradient id="dnaGradient1" x1="0%" y1="0%" x2="100%" y2="100%">
      <stop offset="0%" style="stop-color:#3b82f6" />
      <stop offset="100%" style="stop-color:#1e40af" />
    </linearGradient>
    
    <linearGradient id="dnaGradient2" x1="0%" y1="0%" x2="100%" y2="100%">
      <stop offset="0%" style="stop-color:#06b6d4" />
      <stop offset="100%" style="stop-color:#0891b2" />
    </linearGradient>
    
    <linearGradient id="dataFlow" x1="0%" y1="0%" x2="100%" y2="0%">
      <stop offset="0%" style="stop-color:#8b5cf6;stop-opacity:0" />
      <stop offset="50%" style="stop-color:#06d6a0;stop-opacity:0.8" />
      <stop offset="100%" style="stop-color:#f59e0b;stop-opacity:0" />
    </linearGradient>
    
    <!-- Glow effect filter -->
    <filter id="glow">
      <feGaussianBlur stdDeviation="2" result="coloredBlur"/>
      <feMerge> 
        <feMergeNode in="coloredBlur"/>
        <feMergeNode in="SourceGraphic"/>
      </feMerge>
    </filter>
    
    <!-- Drop shadow -->
    <filter id="shadow" x="-20%" y="-20%" width="140%" height="140%">
      <feDropShadow dx="0" dy="2" stdDeviation="3" flood-opacity="0.3"/>
    </filter>
  </defs>
  
  <!-- Background with subtle pattern -->
  <circle cx="100" cy="100" r="98" fill="url(#centerGlow)" opacity="0.3"/>
  
  <!-- Outer ring data visualization -->
  <g transform="translate(100,100)">
    <!-- Circular data tracks -->
    <circle r="85" fill="none" stroke="#e5e7eb" stroke-width="1" opacity="0.3"/>
    <circle r="75" fill="none" stroke="#d1d5db" stroke-width="1" opacity="0.5"/>
    
    <!-- Data segments on outer ring -->
    <path d="M 0,-85 A 85,85 0 0,1 60.1,-60.1" fill="none" stroke="#3b82f6" stroke-width="3" opacity="0.8"/>
    <path d="M 60.1,-60.1 A 85,85 0 0,1 85,0" fill="none" stroke="#06b6d4" stroke-width="3" opacity="0.8"/>
    <path d="M 85,0 A 85,85 0 0,1 60.1,60.1" fill="none" stroke="#8b5cf6" stroke-width="3" opacity="0.8"/>
    <path d="M 60.1,60.1 A 85,85 0 0,1 0,85" fill="none" stroke="#06d6a0" stroke-width="3" opacity="0.8"/>
    <path d="M 0,85 A 85,85 0 0,1 -60.1,60.1" fill="none" stroke="#f59e0b" stroke-width="3" opacity="0.8"/>
    <path d="M -60.1,60.1 A 85,85 0 0,1 -85,0" fill="none" stroke="#ef4444" stroke-width="3" opacity="0.8"/>
    
    <!-- Central DNA double helix - more sophisticated -->
    <g filter="url(#glow)">
      <!-- Left DNA strand with curve -->
      <path d="M -25,-50 Q -15,-35 -25,-20 Q -35,-5 -25,10 Q -15,25 -25,40 Q -35,55 -25,70" 
            fill="none" stroke="url(#dnaGradient1)" stroke-width="4" stroke-linecap="round"/>
      
      <!-- Right DNA strand -->
      <path d="M 25,-50 Q 15,-35 25,-20 Q 35,-5 25,10 Q 15,25 25,40 Q 35,55 25,70" 
            fill="none" stroke="url(#dnaGradient2)" stroke-width="4" stroke-linecap="round"/>
      
      <!-- Base pairs with varied colors representing nucleotides -->
      <g stroke-width="2.5" stroke-linecap="round">
        <line x1="-25" y1="-45" x2="25" y2="-45" stroke="#3b82f6"/>
        <line x1="-25" y1="-30" x2="25" y2="-30" stroke="#06d6a0"/>
        <line x1="-25" y1="-15" x2="25" y2="-15" stroke="#f59e0b"/>
        <line x1="-25" y1="0" x2="25" y2="0" stroke="#ef4444"/>
        <line x1="-25" y1="15" x2="25" y2="15" stroke="#8b5cf6"/>
        <line x1="-25" y1="30" x2="25" y2="30" stroke="#06b6d4"/>
        <line x1="-25" y1="45" x2="25" y2="45" stroke="#06d6a0"/>
        <line x1="-25" y1="60" x2="25" y2="60" stroke="#3b82f6"/>
      </g>
      
      <!-- Nucleotide markers -->
      <g fill-opacity="0.9">
        <circle cx="-25" cy="-45" r="3" fill="#3b82f6"/>
        <circle cx="25" cy="-45" r="3" fill="#3b82f6"/>
        <circle cx="-25" cy="-15" r="3" fill="#f59e0b"/>
        <circle cx="25" cy="-15" r="3" fill="#f59e0b"/>
        <circle cx="-25" cy="15" r="3" fill="#8b5cf6"/>
        <circle cx="25" cy="15" r="3" fill="#8b5cf6"/>
        <circle cx="-25" cy="45" r="3" fill="#06d6a0"/>
        <circle cx="25" cy="45" r="3" fill="#06d6a0"/>
      </g>
    </g>
    
    <!-- Data flow lines -->
    <g stroke="url(#dataFlow)" stroke-width="2" fill="none" opacity="0.7">
      <path d="M -60,-30 Q -40,-10 -25,0 Q 0,10 25,0 Q 40,-10 60,-30"/>
      <path d="M -60,30 Q -40,10 -25,0 Q 0,-10 25,0 Q 40,10 60,30"/>
    </g>
    
    <!-- Analysis nodes positioned strategically -->
    <g filter="url(#shadow)">
      <circle cx="-55" cy="-35" r="5" fill="#3b82f6" opacity="0.9"/>
      <circle cx="55" cy="-35" r="5" fill="#06b6d4" opacity="0.9"/>
      <circle cx="-65" cy="20" r="4" fill="#8b5cf6" opacity="0.9"/>
      <circle cx="65" cy="20" r="4" fill="#06d6a0" opacity="0.9"/>
      <circle cx="0" cy="-65" r="4" fill="#f59e0b" opacity="0.9"/>
      <circle cx="0" cy="75" r="4" fill="#ef4444" opacity="0.9"/>
    </g>
    
    <!-- Network connections with animation-ready paths -->
    <g stroke="#64748b" stroke-width="1" fill="none" opacity="0.4">
      <path d="M -55,-35 Q -40,-20 -25,-15 M 25,-15 Q 40,-20 55,-35"/>
      <path d="M -65,20 Q -45,15 -25,15 M 25,15 Q 45,15 65,20"/>
      <path d="M 0,-65 Q -30,-50 -25,-45 M 25,-45 Q 30,-50 0,-65"/>
      <path d="M 0,75 Q -30,60 -25,45 M 25,45 Q 30,60 0,75"/>
    </g>
    
    <!-- Central processing indicator -->
    <circle cx="0" cy="0" r="8" fill="none" stroke="#4f46e5" stroke-width="2" opacity="0.6"/>
    <circle cx="0" cy="0" r="4" fill="#4f46e5" opacity="0.8"/>
  </g>
  
  <!-- Outer data constellation -->
  <g opacity="0.7">
    <circle cx="45" cy="30" r="2.5" fill="#3b82f6"/>
    <circle cx="170" cy="60" r="2" fill="#06b6d4"/>
    <circle cx="155" cy="140" r="2.5" fill="#8b5cf6"/>
    <circle cx="75" cy="180" r="2" fill="#06d6a0"/>
    <circle cx="30" cy="130" r="2.5" fill="#f59e0b"/>
    <circle cx="25" cy="85" r="2" fill="#ef4444"/>
    <circle cx="175" cy="110" r="2" fill="#3b82f6"/>
  </g>
  
  <!-- Connecting data paths -->
  <g stroke="#e2e8f0" stroke-width="0.5" fill="none" opacity="0.3">
    <path d="M 45,30 Q 100,45 170,60"/>
    <path d="M 170,60 Q 162,100 155,140"/>
    <path d="M 155,140 Q 115,160 75,180"/>
    <path d="M 75,180 Q 52,155 30,130"/>
    <path d="M 30,130 Q 27,107 25,85"/>
    <path d="M 175,110 Q 137,75 100,100"/>
  </g>
</svg>